<svg width="10" height="15" viewBox="0 0 10 15" fill="none" xmlns="http://www.w3.org/2000/svg">
<path d="M3.12332 7.4961L9.07845 1.82665C9.28902 1.6314 9.40869 1.35723 9.40869 1.07007C9.40869 0.782914 9.28902 0.508745 9.07845 0.313498C8.62943 -0.104174 7.93408 -0.104174 7.48506 0.313498L0.736616 6.73802C0.533291 6.92795 0.415159 7.19186 0.408949 7.47003C0.402739 7.7482 0.508977 8.01711 0.703624 8.21593L7.47906 14.6847C7.92837 15.1016 8.62315 15.1016 9.07245 14.6847C9.28302 14.4894 9.40269 14.2153 9.40269 13.9281C9.40269 13.641 9.28302 13.3668 9.07245 13.1715L3.12332 7.4961Z" fill="#262B2E"/>
</svg>
